:SAMPLES-PER-SECOND 30
:FRAME-RANGE 1-3535
:FULLY-SPECIFIED
:DEGREES
1216
root  -28.6019 39.7946 34.893 -170.874 21.317 -177.357
RightUpLeg  -21.1065 3.77881 2.70502
RightLeg  6.05416 -5.84629 -0.947239
RightFoot  -2.99641 -0.438263 5.72181
RightToes  5.38503e-012 1.26228e-014 -6.01869e-014
Spine  -1.6944 -0.600768 -4.02344
Spine1  5.84454 0.754968 -3.83452
HEad  -9.44705 -23.5656 13.5558
LeftShoulder1  1.76196 -3.40478 -20.0575
LeftArm  0.085196 -3.38552 -40.3996
LeftForeArm  31.2051 3.54812 -13.3626
LeftHand  -0.0404983 5.11036 9.1632
RightShoulder  1.66717 2.29725 23.606
RightArm  -9.38294 10.1685 62.5126
RightForeArm  72.0444 1.90167 10.963
RightHand  -0.0299948 -5.27369 -17.1412
LeftUpLeg  -15.2897 4.5029 1.63323
LeftLeg  10.0767 7.49694 1.13082
LeftFoot  -4.95262 0.0585279 -0.423231
LeftToes  8.9788e-011 3.29689e-010 2.1201e-011
1217
root  -28.6057 39.7584 34.5086 -170.966 21.5233 -177.997
RightUpLeg  -21.7528 3.7038 2.16763
RightLeg  3.1176 -4.97164 -0.615502
RightFoot  -3.50852 -0.480195 6.65649
RightToes  5.38503e-012 1.26228e-014 -6.01869e-014
Spine  -1.71473 -0.761812 -4.00845
Spine1  6.26435 0.629586 -3.8157
HEad  -10.0684 -23.7293 12.9013
LeftShoulder1  1.8312 -3.63537 -20.1928
LeftArm  0.524189 -5.32825 -40.7929
LeftForeArm  32.0794 4.55478 -13.5824
LeftHand  -0.0548656 4.88625 8.4402
RightShoulder  1.65505 2.22961 23.7571
RightArm  -12.5065 9.57343 61.2542
RightForeArm  72.459 -1.97264 9.38901
RightHand  0.0300905 -5.66648 -17.9579
LeftUpLeg  -14.849 4.26673 0.8795
LeftLeg  10.1932 7.89792 1.02992
LeftFoot  -5.72163 0.0418561 -0.151315
LeftToes  8.9788e-011 3.29689e-010 2.1201e-011
1218
root  -28.57 39.682 34.064 -171.204 21.9457 -178.745
RightUpLeg  -22.3793 3.37075 1.58407
RightLeg  2.15519 -5.91696 -0.408024
RightFoot  -4.18723 -0.530646 8.01841
RightToes  5.38503e-012 1.26228e-014 -6.01869e-014
Spine  -1.881 -0.926268 -4.00873
Spine1  6.50982 0.59075 -4.12106
HEad  -9.86155 -24.0439 12.0894
LeftShoulder1  1.82528 -3.63954 -20.0845
LeftArm  0.803152 -6.69591 -41.622
LeftForeArm  32.9258 5.23504 -13.6961
LeftHand  -0.0363425 5.15562 8.38999
RightShoulder  1.65924 2.22016 23.8913
RightArm  -16.1805 9.11769 60.1029
RightForeArm  73.9142 -5.77373 7.32803
RightHand  0.0677363 -5.90003 -18.2945
LeftUpLeg  -14.3338 4.18819 0.0815925
LeftLeg  10.6965 8.32342 0.926841
LeftFoot  -6.84051 0.0494122 -0.253449
LeftToes  8.9788e-011 3.29689e-010 2.1201e-011
1219
root  -28.4938 39.6299 33.5467 -171.6 22.3464 -179.361
RightUpLeg  -22.7604 2.6778 1.20614
RightLeg  2.85919 -8.10577 -0.219843
RightFoot  -4.07298 -0.499753 7.42026
RightToes  5.38503e-012 1.26228e-014 -6.01869e-014
Spine  -2.14628 -1.01682 -4.05398
Spine1  6.74965 0.472122 -3.99025
HEad  -8.79883 -24.5237 11.0808
LeftShoulder1  1.83584 -3.66168 -20.1575
LeftArm  0.84088 -7.29206 -42.529
LeftForeArm  33.4237 5.36638 -13.6921
LeftHand  -0.0385392 5.11842 8.13226
RightShoulder  1.6343 2.11264 24.031
RightArm  -20.2439 8.59179 58.7321
RightForeArm  76.9768 -5.33011 5.37627
RightHand  0.124435 -6.27119 -18.1469
LeftUpLeg  -13.3 4.13023 -0.589204
LeftLeg  10.8653 8.70889 0.857993
LeftFoot  -7.89883 0.0597365 -0.396867
LeftToes  8.9788e-011 3.29689e-010 2.1201e-011
1220
root  -28.3768 39.6152 32.946 -172.184 22.6487 -179.764
RightUpLeg  -22.486 1.56284 1.12457
RightLeg  4.52691 -10.2004 -0.244597
RightFoot  -4.18799 -0.436824 6.524
RightToes  5.38503e-012 1.26228e-014 -6.01869e-014
Spine  -2.56594 -1.14279 -3.96513
Spine1  7.12501 0.166676 -3.51174
HEad  -7.3209 -24.8613 9.99065
LeftShoulder1  1.84462 -3.64133 -20.3757
LeftArm  0.91085 -7.08552 -43.4766
LeftForeArm  33.6222 5.04325 -13.676
LeftHand  -0.044805 5.02539 8.19677
RightShoulder  1.6056 1.98441 24.2256
RightArm  -23.4748 7.86313 57.0256
RightForeArm  79.0117 -4.95904 3.6492
RightHand  0.22409 -6.92944 -17.9816
LeftUpLeg  -11.6574 4.09116 -1.06465
LeftLeg  10.6598 9.01316 0.815558
LeftFoot  -8.85034 0.0627636 -0.441362
LeftToes  8.9788e-011 3.29689e-010 2.1201e-011
1221
root  -28.1988 39.5571 32.2408 -172.957 22.7767 179.768
RightUpLeg  -21.4098 0.231905 0.946037
RightLeg  5.72985 -10.5474 -0.316811
RightFoot  -4.41661 -0.369702 5.60773
RightToes  5.38503e-012 1.26228e-014 -6.01869e-014
Spine  -3.19192 -1.31409 -4.12619
Spine1  7.47448 -0.233934 -2.83084
HEad  -5.55702 -25.1201 8.79296
LeftShoulder1  1.88564 -3.75606 -20.5363
LeftArm  1.21529 -6.16001 -44.4889
LeftForeArm  33.3494 4.22005 -13.7132
LeftHand  -0.0473314 4.98378 8.10145
RightShoulder  1.48463 1.5286 24.5863
RightArm  -27.1467 6.63662 55.1147
RightForeArm  81.2674 -4.50495 1.51874
RightHand  0.270347 -7.26963 -17.6426
LeftUpLeg  -9.87376 3.92439 -1.65516
LeftLeg  10.8755 9.32094 1.02539
LeftFoot  -10.1537 0.0664673 -0.530735
LeftToes  8.9788e-011 3.29689e-010 2.1201e-011
1222
root  -27.9972 39.6028 31.488 -173.629 23.0054 179.83
RightUpLeg  -20.1108 -0.278852 0.933036
RightLeg  6.50902 -10.3356 -0.321927
RightFoot  -2.17935 -0.442827 5.33643
RightToes  5.38503e-012 1.26228e-014 -6.01869e-014
Spine  -4.23434 -1.47171 -3.37588
Spine1  8.41499 -0.679632 -2.19704
HEad  -4.075 -25.135 7.88535
LeftShoulder1  1.83839 -3.57596 -20.5487
LeftArm  1.58271 -4.99471 -45.6299
LeftForeArm  33.9011 3.2374 -13.7175
LeftHand  -0.0623339 4.73418 7.81038
RightShoulder  1.394 1.14674 25.1993
RightArm  -28.4982 5.06038 52.7991
RightForeArm  80.5513 -4.42832 0.883229
RightHand  0.352191 -7.77514 -17.8923
LeftUpLeg  -7.4256 3.50203 -1.87966
LeftLeg  10.0494 10.0571 1.46135
LeftFoot  -10.6706 0.0681484 -0.699366
LeftToes  8.9788e-011 3.29689e-010 2.1201e-011
1223
root  -27.7722 39.6099 30.7362 -174.243 23.8154 -179.805
RightUpLeg  -19.2397 -0.358331 1.45654
RightLeg  8.08082 -9.36352 -0.67162
RightFoot  0.28458 -0.454499 4.48028
RightToes  5.38503e-012 1.26228e-014 -6.01869e-014
Spine  -4.50909 -1.36327 -2.3727
Spine1  8.34914 -0.855145 -1.55068
HEad  -2.70584 -25.1299 6.99561
LeftShoulder1  1.78962 -3.31909 -20.8681
LeftArm  2.22573 -3.53557 -46.5934
LeftForeArm  34.5236 2.21577 -13.7815
LeftHand  -0.0647476 4.71251 8.02494
RightShoulder  1.29083 0.738881 25.8148
RightArm  -28.951 3.06922 50.3617
RightForeArm  78.3649 -4.52153 0.881545
RightHand  0.291071 -7.37404 -17.9076
LeftUpLeg  -5.50873 3.17387 -1.92657
LeftLeg  10.5537 11.2721 2.36508
LeftFoot  -11.5448 0.0666092 -1.49421
LeftToes  8.9788e-011 3.29689e-010 2.1201e-011
1224
root  -27.5508 39.5255 30.0345 -174.83 25.4687 -179.229
RightUpLeg  -18.9031 -0.384601 2.46818
RightLeg  10.9631 -7.43783 -1.21015
RightFoot  0.171942 -0.273942 2.72761
RightToes  5.38503e-012 1.26228e-014 -6.01869e-014
Spine  -4.38842 -1.04737 -1.0488
Spine1  8.11331 -0.725127 -1.23164
HEad  -1.76805 -24.6216 6.25847
LeftShoulder1  1.70567 -2.95555 -21.1099
LeftArm  2.4335 -1.9061 -47.5948
LeftForeArm  35.1763 1.12888 -13.6904
LeftHand  -0.0675947 4.67232 8.07073
RightShoulder  1.25058 0.579745 26.0899
RightArm  -28.796 1.43365 48.5076
RightForeArm  75.9376 -4.67589 1.1917
RightHand  0.26232 -7.16433 -18.1066
LeftUpLeg  -4.48397 3.66697 -1.59354
LeftLeg  13.0837 12.4301 3.3166
LeftFoot  -13.1514 0.0335956 -2.86358
LeftToes  8.9788e-011 3.29689e-010 2.1201e-011
1225
root  -27.3392 39.467 29.3883 -175.509 27.1252 -178.83
RightUpLeg  -18.1528 -0.0757856 3.11325
RightLeg  13.1842 -6.16354 -1.5249
RightFoot  -0.711631 -0.14404 1.49552
RightToes  5.38503e-012 1.26228e-014 -6.01869e-014
Spine  -4.31414 -0.902483 -0.166887
Spine1  8.24661 -0.776842 -0.710544
HEad  -1.32919 -23.7308 5.8986
LeftShoulder1  1.67931 -2.7998 -21.3899
LeftArm  2.19083 -0.18243 -48.3693
LeftForeArm  35.4924 0.05118 -13.483
LeftHand  -0.076537 4.52289 7.94661
RightShoulder  1.23635 0.529014 26.1441
RightArm  -28.7662 0.616106 47.4147
RightForeArm  74.9296 -4.73521 1.29642
RightHand  0.243992 -7.04069 -18.1588
LeftUpLeg  -4.11367 4.92398 -1.26333
LeftLeg  16.7894 12.4264 4.30545
LeftFoot  -13.9079 -0.024476 -4.8096
LeftToes  8.9788e-011 3.29689e-010 2.1201e-011
1226
root  -27.1319 39.4386 28.8091 -176.227 28.2085 -178.855
RightUpLeg  -17.1789 0.359547 3.14016
RightLeg  14.6404 -5.46677 -1.68825
RightFoot  -1.88848 -0.0859202 0.883292
RightToes  5.38503e-012 1.26228e-014 -6.01869e-014
Spine  -4.37775 -1.15645 0.0480074
Spine1  8.5287 -1.18494 -0.16606
HEad  -0.821227 -22.8934 5.94904
LeftShoulder1  1.6685 -2.71219 -21.6248
LeftArm  2.25026 1.13616 -48.9222
LeftForeArm  35.2209 -0.481872 -13.4463
LeftHand  -0.0726291 4.61398 8.28382
RightShoulder  1.19995 0.374647 26.515
RightArm  -28.2931 0.811299 46.6329
RightForeArm  74.2505 -4.8127 1.59032
RightHand  0.217809 -6.88078 -18.0651
LeftUpLeg  -4.92363 6.39482 -1.07794
LeftLeg  22.0084 10.9632 5.16698
LeftFoot  -13.48 -0.0660433 -7.84994
LeftToes  8.9788e-011 3.29689e-010 2.1201e-011
1227
root  -26.9508 39.3973 28.2813 -176.585 29.1224 -178.702
RightUpLeg  -16.5083 0.117852 3.27861
RightLeg  15.9761 -4.48092 -1.5619
RightFoot  -3.1904 -0.0898578 0.956148
RightToes  5.38503e-012 1.26228e-014 -6.01869e-014
Spine  -4.34076 -1.42898 0.411663
Spine1  8.40932 -1.60675 0.563938
HEad  0.307778 -22.3446 5.75067
LeftShoulder1  1.6877 -2.76625 -21.699
LeftArm  1.44426 2.05948 -49.6131
LeftForeArm  35.6158 0.0796512 -13.3572
LeftHand  -0.0739143 4.57367 8.0509
RightShoulder  1.14981 0.207968 26.6285
RightArm  -27.9779 0.802142 46.4917
RightForeArm  74.1077 -4.85233 1.79058
RightHand  0.243033 -7.03151 -18.1885
LeftUpLeg  -6.82 7.70233 -0.471258
LeftLeg  28.2282 8.82288 5.44246
LeftFoot  -11.8835 0.0223327 -10.2691
LeftToes  8.9788e-011 3.29689e-010 2.1201e-011
1228
root  -26.7853 39.2933 27.7853 -176.693 30.025 -178.153
RightUpLeg  -16.0519 -0.555662 3.74333
RightLeg  17.5088 -3.01859 -1.164
RightFoot  -4.54453 -0.0661256 0.585868
RightToes  5.38503e-012 1.26228e-014 -6.01869e-014
Spine  -4.17159 -1.6254 1.13424
Spine1  8.3087 -1.91652 1.18805
HEad  1.1547 -22.1386 5.66265
LeftShoulder1  1.67741 -2.77443 -21.4789
LeftArm  0.846618 2.51946 -50.5705
LeftForeArm  36.7095 0.82963 -13.296
LeftHand  -0.058061 4.80164 7.80482
RightShoulder  1.10365 0.0798556 26.4877
RightArm  -27.2934 0.583636 46.7472
RightForeArm  72.7377 -4.98932 2.27507
RightHand  0.148321 -6.45669 -17.6848
LeftUpLeg  -9.12797 8.50501 0.63072
LeftLeg  34.4268 6.23582 4.93684
LeftFoot  -10.2204 0.149839 -9.05506
LeftToes  8.9788e-011 3.29689e-010 2.1201e-011
1229
root  -26.6408 39.2396 27.3215 -176.853 31.1186 -177.819
RightUpLeg  -15.3467 -0.657596 3.95794
RightLeg  18.2975 -2.0065 -0.862324
RightFoot  -5.55428 -0.050473 0.334778
RightToes  5.38503e-012 1.26228e-014 -6.01869e-014
Spine  -3.82837 -1.63107 1.50303
Spine1  8.07652 -2.00661 1.66244
HEad  1.38101 -22.3097 6.11318
LeftShoulder1  1.64856 -2.63317 -21.6597
LeftArm  0.841281 2.30226 -51.0378
LeftForeArm  38.0661 1.50586 -13.3269
LeftHand  -0.0556548 4.8208 7.49953
RightShoulder  1.08702 0.00705571 26.7063
RightArm  -25.781 0.545049 46.6805
RightForeArm  70.8103 -5.22575 3.22933
RightHand  0.0992609 -6.13611 -17.5943
LeftUpLeg  -10.7999 8.46567 1.68845
LeftLeg  38.2099 5.19845 4.7483
LeftFoot  -10.6404 0.115263 -8.42752
LeftToes  8.9788e-011 3.29689e-010 2.1201e-011
